<svg
  xmlns="http://www.w3.org/2000/svg"
  viewBox="0 0 64 64"
  fill="#ffffff"
>
  <path d="M63.9 58.3L45.9 27.3c-.2-.3-.6-.6-1-.6s-.8.2-1 .6l-8 13.9-4.8-8.3-.1-.2L24 20.4c-.4-.7-1.5-.7-1.9 0l-7 12.2-.3.4L.1 58.3c-.2.3-.2.8 0 1.1s.6.6 1 .6H45h17.9c.4 0 .8-.2 1-.6.1-.3.1-.7 0-1.1z"/>
  <path d="M39.1 16.6c2 0 3.6-1.6 3.6-3.6S41.1 9.4 39.1 9.4 35.5 11 35.5 13s1.6 3.6 3.6 3.6z"/>
  <path d="M39.1 8.1c.6 0 1.1-.5 1.1-1.1V5.1c0-.6-.5-1.1-1.1-1.1S38 4.5 38 5.1V7c0 .6.5 1.1 1.1 1.1z"/>
  <path d="M38 19v1.9c0 .6.5 1.1 1.1 1.1s1.1-.5 1.1-1.1V19c0-.6-.5-1.1-1.1-1.1S38 18.4 38 19z"/>
</svg>
